HIERARCHY
ROOT joint_Root
{
	OFFSET 0.0 0.0 0.0
	CHANNELS 6 Xposition Yposition Zposition Zrotation Xrotation Yrotation 
	JOINT Hips
	{
		OFFSET 4.5925 91.4895 -427.239
		CHANNELS 6 Xposition Yposition Zposition Zrotation Xrotation Yrotation 
		JOINT Spine
		{
			OFFSET 15.7357 0.0 0.0
			CHANNELS 6 Xposition Yposition Zposition Zrotation Xrotation Yrotation 
			JOINT Chest
			{
				OFFSET 8.98455 -0.406207 0.0
				CHANNELS 6 Xposition Yposition Zposition Zrotation Xrotation Yrotation 
				JOINT Neck
				{
					OFFSET 16.3773 0.0 0.0
					CHANNELS 6 Xposition Yposition Zposition Zrotation Xrotation Yrotation 
					JOINT Head
					{
						OFFSET 6.45672 0.0 0.0
						CHANNELS 6 Xposition Yposition Zposition Zrotation Xrotation Yrotation 
						End Site
						{
							OFFSET 0.0 0.0 0.0
						}
					}
				}
				JOINT Shoulder_L
				{
					OFFSET 12.9942 -0.242716 4.98039
					CHANNELS 6 Xposition Yposition Zposition Zrotation Xrotation Yrotation 
					JOINT UpperArm_L
					{
						OFFSET 5.34809 0.0 0.0
						CHANNELS 6 Xposition Yposition Zposition Zrotation Xrotation Yrotation 
						JOINT LowerArm_L
						{
							OFFSET 24.3286 1.87007e-05 0.0
							CHANNELS 6 Xposition Yposition Zposition Zrotation Xrotation Yrotation 
							JOINT Hand_L
							{
								OFFSET 22.2916 0.0 0.0
								CHANNELS 6 Xposition Yposition Zposition Zrotation Xrotation Yrotation 
								End Site
								{
									OFFSET 0.0 0.0 0.0
								}
							}
						}
					}
				}
				JOINT Shoulder_R
				{
					OFFSET 12.9945 -0.242716 -4.98039
					CHANNELS 6 Xposition Yposition Zposition Zrotation Xrotation Yrotation 
					JOINT UpperArm_R
					{
						OFFSET -5.34813 0.0 0.0
						CHANNELS 6 Xposition Yposition Zposition Zrotation Xrotation Yrotation 
						JOINT LowerArm_R
						{
							OFFSET -24.3289 0.000322201 0.0
							CHANNELS 6 Xposition Yposition Zposition Zrotation Xrotation Yrotation 
							JOINT Hand_R
							{
								OFFSET -22.2915 -0.000108084 0.0
								CHANNELS 6 Xposition Yposition Zposition Zrotation Xrotation Yrotation 
								End Site
								{
									OFFSET 0.0 0.0 0.0
								}
							}
						}
					}
				}
			}
		}
		JOINT UpperLeg_L
		{
			OFFSET -2.19248 -6.46944 0.0
			CHANNELS 6 Xposition Yposition Zposition Zrotation Xrotation Yrotation 
			JOINT LowerLeg_L
			{
				OFFSET 39.0811 0.0 -1.23785e-05
				CHANNELS 6 Xposition Yposition Zposition Zrotation Xrotation Yrotation 
				JOINT Foot_L
				{
					OFFSET 40.9854 0.0 -1.26872e-05
					CHANNELS 6 Xposition Yposition Zposition Zrotation Xrotation Yrotation 
					JOINT Toes_L
					{
						OFFSET 11.7543 0.0 0.0
						CHANNELS 6 Xposition Yposition Zposition Zrotation Xrotation Yrotation 
						End Site
						{
							OFFSET 0.0 0.0 0.0
						}
					}
				}
			}
		}
		JOINT UpperLeg_R
		{
			OFFSET -2.19251 6.46944 0.0
			CHANNELS 6 Xposition Yposition Zposition Zrotation Xrotation Yrotation 
			JOINT LowerLeg_R
			{
				OFFSET -39.0811 -0.00228153 -0.0401928
				CHANNELS 6 Xposition Yposition Zposition Zrotation Xrotation Yrotation 
				JOINT Foot_R
				{
					OFFSET -40.9854 0.0 0.0
					CHANNELS 6 Xposition Yposition Zposition Zrotation Xrotation Yrotation 
					JOINT Toes_R
					{
						OFFSET -11.7543 0.0 0.0
						CHANNELS 6 Xposition Yposition Zposition Zrotation Xrotation Yrotation 
						End Site
						{
							OFFSET 0.0 0.0 0.0
						}
					}
				}
			}
		}
	}
}
MOTION
Frames:	8
Frame Time:	0.0333333
0.000000 0.000000 0.000000 0.000000 0.000000 -0.000000 -0.373279 82.885900 -2.442050 89.692700 -4.113630 12.424000 15.735700 0.000005 -0.000001 89.655300 80.841000 -89.941800 8.984550 -0.406207 -0.000000 10.551500 -0.116397 -0.562040 16.377300 -0.000001 -0.000001 -2.111280 -2.039470 1.171970 6.456720 -0.000001 -0.000000 -3.919800 -1.916640 2.908570 12.994200 -0.242716 4.980390 -91.735700 4.840570 -70.246700 5.348090 -0.000007 -0.000001 -56.378400 20.639500 -21.848400 24.328600 0.000019 0.000005 11.074200 21.990500 -27.594600 22.291600 -0.000001 0.000005 7.675820 5.493130 -6.261130 12.994500 -0.242716 -4.980390 88.367500 8.427510 -78.994800 -5.348130 -0.000001 -0.000004 -60.328100 23.121400 -17.345600 -24.328900 0.000322 -0.000009 -0.924645 -2.758270 -18.529100 -22.291500 -0.000108 -0.000004 4.653440 5.447180 -4.520010 -2.192480 -6.469440 -0.000000 -174.729000 -11.187000 -13.814100 39.081100 -0.000007 -0.000012 -0.528177 0.299783 60.422800 40.985400 -0.000006 -0.000013 -0.091217 1.998600 -83.892000 11.754300 -0.000000 0.000003 -0.000346 -0.002933 -16.686300 -2.192510 6.469440 -0.000001 176.385000 11.330100 166.850000 -39.081100 -0.002282 -0.040193 0.084563 -0.045770 60.641700 -40.985400 0.000008 0.000006 6.750350 3.172820 -84.972300 -11.754300 -0.000006 -0.000006 -0.505019 -0.620226 -16.775600
0.000000 0.000000 0.000000 0.000000 0.000000 -0.000000 -0.415031 84.295800 -2.017980 89.674100 -3.691040 11.948300 15.735700 0.000005 -0.000001 90.293500 81.638100 -90.554800 8.984550 -0.406207 -0.000000 8.957770 0.082504 -0.528703 16.377300 -0.000001 -0.000001 -0.666840 -1.822530 1.075880 6.456720 -0.000001 -0.000000 -2.414370 -1.551010 2.720030 12.994200 -0.242716 4.980390 -91.355900 3.666670 -69.689100 5.348090 -0.000007 -0.000001 -53.439700 7.024830 -23.598200 24.328600 0.000019 0.000005 8.156390 20.736000 -22.038100 22.291600 -0.000001 0.000005 6.570590 5.481260 -5.800530 12.994500 -0.242716 -4.980390 88.488200 7.146520 -78.021800 -5.348130 -0.000001 -0.000004 -57.020800 10.316700 -19.629900 -24.328900 0.000322 -0.000009 -0.306156 -1.759620 -9.772990 -22.291500 -0.000108 -0.000004 0.137947 5.368210 -1.927170 -2.192480 -6.469440 -0.000000 -174.942000 -10.624100 -11.985900 39.081100 -0.000007 -0.000012 -0.479716 0.320791 56.230000 40.985400 -0.000006 -0.000013 -0.274520 1.864800 -82.055700 11.754300 -0.000000 0.000003 -0.000341 -0.002897 -16.685000 -2.192510 6.469440 -0.000001 176.222000 12.157900 168.815000 -39.081100 -0.002282 -0.040193 0.077293 -0.049040 56.493200 -40.985400 0.000008 0.000006 6.815380 3.836180 -83.110000 -11.754300 -0.000006 -0.000006 -0.511164 -0.627868 -16.932800
0.000000 0.000000 0.000000 0.000000 0.000000 -0.000000 -0.438486 86.428400 -1.480090 89.638100 -3.184320 11.245400 15.735700 0.000005 -0.000001 90.290800 82.677900 -90.554000 8.984550 -0.406207 -0.000000 6.878290 0.076130 -0.530399 16.377300 -0.000001 -0.000001 1.410900 -1.688100 1.014260 6.456720 -0.000001 -0.000000 -1.191330 -1.281730 2.683120 12.994200 -0.242716 4.980390 -90.587300 1.539510 -69.114800 5.348090 -0.000007 -0.000001 -49.286400 -8.596310 -27.377700 24.328600 0.000019 0.000005 6.852670 22.505800 -17.430100 22.291600 -0.000001 0.000005 7.617960 5.414010 -3.402530 12.994500 -0.242716 -4.980390 88.748700 5.390180 -76.909000 -5.348130 -0.000001 -0.000004 -52.879800 -7.740170 -23.688500 -24.328900 0.000322 -0.000009 0.109720 1.946380 -3.262630 -22.291500 -0.000108 -0.000004 1.343260 5.280450 0.604001 -2.192480 -6.469440 -0.000000 -175.177000 -10.040000 -8.934370 39.081100 -0.000007 -0.000012 -0.403813 0.347514 49.286200 40.985400 -0.000006 -0.000013 -0.437142 1.832390 -78.925700 11.754300 -0.000000 0.000003 -0.000294 -0.002558 -16.672900 -2.192510 6.469440 -0.000001 176.064000 13.096000 171.930000 -39.081100 -0.002282 -0.040193 0.063687 -0.051278 49.687700 -40.985400 0.000008 0.000006 6.637730 4.816980 -79.792100 -11.754300 -0.000006 -0.000006 -0.595151 -0.730649 -17.196200
0.000000 0.000000 0.000000 0.000000 0.000000 -0.000000 -0.432309 88.465900 -1.060450 89.705500 -3.178150 9.607150 15.735700 0.000005 -0.000001 90.841200 84.062600 -91.132000 8.984550 -0.406207 -0.000000 4.108120 0.183353 -0.587516 16.377300 -0.000001 -0.000001 3.587660 -1.533780 1.093700 6.456720 -0.000001 -0.000000 -0.226447 -1.029300 2.750210 12.994200 -0.242716 4.980390 -89.763900 -0.614573 -68.983500 5.348090 -0.000007 -0.000001 -44.619300 -25.476400 -32.464500 24.328600 0.000019 0.000005 6.167020 21.818200 -16.211300 22.291600 -0.000001 0.000005 8.763370 5.314630 -0.345844 12.994500 -0.242716 -4.980390 89.172100 3.371040 -76.193700 -5.348130 -0.000001 -0.000004 -46.744600 -22.918200 -29.600000 -24.328900 0.000322 -0.000009 0.011223 0.516386 -1.387890 -22.291500 -0.000108 -0.000004 5.489450 5.206040 2.564950 -2.192480 -6.469440 -0.000000 -175.534000 -10.306400 -6.495040 39.081100 -0.000007 -0.000012 -0.307131 0.345251 41.656500 40.985400 -0.000006 -0.000013 -0.486425 2.025870 -75.395100 11.754300 -0.000000 0.000003 -0.000212 -0.001948 -16.650900 -2.192510 6.469440 -0.000001 176.162000 13.629500 174.128000 -39.081100 -0.002282 -0.040193 0.047990 -0.048981 42.394500 -40.985400 0.000008 0.000006 6.312370 5.852800 -76.041600 -11.754300 -0.000006 -0.000006 -0.515636 -0.633533 -17.609400
0.000000 0.000000 0.000000 0.000000 0.000000 -0.000000 -0.322958 89.909500 -0.928848 89.632300 -3.364730 7.139630 15.735700 0.000005 -0.000001 90.758800 85.572900 -90.975000 8.984550 -0.406207 -0.000000 1.087600 0.129810 -0.433421 16.377300 -0.000001 -0.000001 5.053340 -1.326620 1.079330 6.456720 -0.000001 -0.000000 0.172485 -0.788690 2.842820 12.994200 -0.242716 4.980390 -88.832200 -3.100880 -69.351400 5.348090 -0.000007 -0.000001 -38.213300 -39.499800 -36.305700 24.328600 0.000019 0.000005 5.732750 15.771300 -20.279300 22.291600 -0.000001 0.000005 11.925100 5.326200 -0.654475 12.994500 -0.242716 -4.980390 89.882400 0.488990 -76.484100 -5.348130 -0.000001 -0.000004 -41.678500 -36.265300 -35.884500 -24.328900 0.000322 -0.000009 -0.523327 -4.924550 -6.019770 -22.291500 -0.000108 -0.000004 9.740830 5.276280 0.738860 -2.192480 -6.469440 -0.000000 -175.960000 -10.837000 -5.842800 39.081100 -0.000007 -0.000012 -0.240372 0.337037 35.496600 40.985400 -0.000006 -0.000013 -0.432402 2.249810 -72.384600 11.754300 -0.000000 0.000003 -0.000152 -0.001465 -16.633200 -2.192510 6.469440 -0.000001 176.540000 14.562600 174.668000 -39.081100 -0.002282 -0.040193 0.036624 -0.045325 36.334100 -40.985400 0.000008 0.000006 6.195860 7.274210 -73.025700 -11.754300 -0.000006 -0.000006 -0.347297 -0.433849 -17.807800
0.000000 0.000000 0.000000 0.000000 0.000000 -0.000000 -0.215270 90.758300 -0.849578 89.539300 -3.608810 5.193420 15.735700 0.000005 -0.000001 89.371400 86.696800 -89.482900 8.984550 -0.406207 -0.000000 -1.160020 -0.063778 -0.223591 16.377300 -0.000001 -0.000001 5.556350 -1.172740 1.064130 6.456720 -0.000001 -0.000000 0.120535 -0.723488 2.917830 12.994200 -0.242716 4.980390 -87.655400 -6.168180 -69.140900 5.348090 -0.000007 -0.000001 -27.188600 -48.198500 -35.293800 24.328600 0.000019 0.000005 6.093060 10.763600 -29.750000 22.291600 -0.000001 0.000005 18.385400 5.431520 -3.959540 12.994500 -0.242716 -4.980390 90.696400 -2.905320 -76.516300 -5.348130 -0.000001 -0.000004 -35.016400 -44.317400 -39.563400 -24.328900 0.000322 -0.000009 -4.786260 -13.147200 -20.190700 -22.291500 -0.000108 -0.000004 13.463600 5.519650 -7.244230 -2.192480 -6.469440 -0.000000 -176.255000 -11.456300 -5.677520 39.081100 -0.000007 -0.000012 -0.198972 0.326457 31.362200 40.985400 -0.000006 -0.000013 -0.363954 2.520630 -70.376800 11.754300 -0.000000 0.000003 -0.000110 -0.001115 -16.620200 -2.192510 6.469440 -0.000001 176.772000 16.009000 174.933000 -39.081100 -0.002282 -0.040193 0.028980 -0.041115 31.990800 -40.985400 0.000008 0.000006 6.303140 9.100180 -71.281200 -11.754300 -0.000006 -0.000006 -0.089573 -0.130541 -17.739600
0.000000 0.000000 0.000000 0.000000 0.000000 -0.000000 -0.115837 91.199300 -0.846860 89.465500 -3.838290 3.924050 15.735700 0.000005 -0.000001 89.158100 87.272700 -89.151800 8.984550 -0.406207 -0.000000 -2.311980 -0.080675 0.011092 16.377300 -0.000001 -0.000001 4.941940 -1.165740 0.945989 6.456720 -0.000001 -0.000000 -0.059153 -1.043370 3.081560 12.994200 -0.242716 4.980390 -86.560700 -8.338170 -67.490500 5.348090 -0.000007 -0.000001 -19.546900 -57.350900 -36.929400 24.328600 0.000019 0.000005 9.790980 10.856600 -42.497300 22.291600 -0.000001 0.000005 25.966600 5.515530 -7.123960 12.994500 -0.242716 -4.980390 91.458300 -5.640060 -75.479400 -5.348130 -0.000001 -0.000004 -24.883100 -50.758300 -39.895500 -24.328900 0.000322 -0.000009 -7.100620 -8.442310 -40.347400 -22.291500 -0.000108 -0.000004 21.160100 5.638130 -13.871600 -2.192480 -6.469440 -0.000000 -176.438000 -12.130800 -5.788790 39.081100 -0.000007 -0.000012 -0.169948 0.306182 29.032900 40.985400 -0.000006 -0.000013 -0.245236 2.922160 -69.211000 11.754300 -0.000000 0.000003 -0.000117 -0.001175 -16.622500 -2.192510 6.469440 -0.000001 176.880000 17.400300 175.113000 -39.081100 -0.002282 -0.040193 0.023334 -0.035871 29.178600 -40.985400 0.000008 0.000006 6.393370 10.786100 -70.489100 -11.754300 -0.000006 -0.000006 -0.002039 -0.029202 -17.760500
0.000000 0.000000 0.000000 0.000000 0.000000 -0.000000 0.003930 91.430000 -0.895269 89.434900 -3.652330 3.234130 15.735700 0.000005 -0.000001 91.879200 87.555500 -91.667500 8.984550 -0.406207 -0.000000 -2.879940 0.140600 0.426941 16.377300 -0.000001 -0.000001 4.276000 -1.302540 0.806743 6.456720 -0.000001 -0.000000 0.133156 -1.406640 2.239770 12.994200 -0.242716 4.980390 -85.147400 -10.311800 -64.627700 5.348090 -0.000007 -0.000001 -22.144300 -64.054100 -47.381000 24.328600 0.000019 0.000005 10.734500 8.877120 -50.852500 22.291600 -0.000001 0.000005 31.818400 5.562980 -9.336940 12.994500 -0.242716 -4.980390 92.752600 -8.625970 -72.230600 -5.348130 -0.000001 -0.000004 -21.114000 -57.986500 -46.619300 -24.328900 0.000322 -0.000009 -3.860520 -2.864000 -53.476100 -22.291500 -0.000108 -0.000004 26.668200 5.670990 -17.548300 -2.192480 -6.469440 -0.000000 -176.676000 -12.014200 -5.932400 39.081100 -0.000007 -0.000012 -0.152595 0.289728 27.775200 40.985400 -0.000006 -0.000013 -0.181290 2.911610 -68.543800 11.754300 -0.000000 0.000003 -0.000123 -0.001227 -16.624400 -2.192510 6.469440 -0.000001 176.862000 18.647800 175.383000 -39.081100 -0.002282 -0.040193 0.019867 -0.031971 27.382100 -40.985400 0.000008 0.000006 6.461770 11.888100 -70.176500 -11.754300 -0.000006 -0.000006 -0.002032 -0.029117 -17.757100
